<svg width="136" height="136" viewBox="0 0 136 136" fill="none" xmlns="http://www.w3.org/2000/svg">
<path d="M19.9616 87.9616C8.9371 61.4307 21.5075 30.9861 48.0384 19.9616C74.5693 8.93711 105.014 21.5075 116.038 48.0384C127.063 74.5693 114.492 105.014 87.9616 116.038C61.4307 127.063 30.9861 114.492 19.9616 87.9616Z" fill="url(#paint0_linear)"/>
<ellipse cx="68" cy="69.317" rx="45.4358" ry="45.4358" fill="white"/>
<path fill-rule="evenodd" clip-rule="evenodd" d="M68.5077 75.9019C73.469 75.9019 77.4738 71.8577 77.4738 66.8477V48.7392C77.4738 43.7292 73.469 39.6849 68.5077 39.6849C63.5465 39.6849 59.5416 43.7292 59.5416 48.7392V66.8477C59.5416 71.8577 63.5465 75.9019 68.5077 75.9019ZM65.519 48.7392C65.519 47.0792 66.8639 45.7211 68.5077 45.7211C70.1515 45.7211 71.4964 47.0792 71.4964 48.7392V66.8476C71.4964 68.5076 70.1515 69.8657 68.5077 69.8657C66.8639 69.8657 65.519 68.5076 65.519 66.8476V48.7392ZM68.5077 81.938C76.7565 81.938 83.4512 75.1775 83.4512 66.8477H89.4287C89.4287 77.5015 81.6281 86.2539 71.4964 87.7327V97.0284H65.519V87.7327C55.3873 86.2539 47.5868 77.5015 47.5868 66.8477H53.5642C53.5642 75.1775 60.2589 81.938 68.5077 81.938Z" fill="url(#paint1_linear)"/>
<defs>
<linearGradient id="paint0_linear" x1="87.9616" y1="116.038" x2="48.0384" y2="19.9616" gradientUnits="userSpaceOnUse">
<stop stop-color="#FFDC96"/>
<stop offset="0.255208" stop-color="#FCB780"/>
<stop offset="0.307292" stop-color="#FCB780"/>
<stop offset="0.307392" stop-color="#FCB780"/>
<stop offset="1" stop-color="#ED1C24"/>
</linearGradient>
<linearGradient id="paint1_linear" x1="47.5868" y1="39.6849" x2="68.5077" y2="97.0284" gradientUnits="userSpaceOnUse">
<stop offset="0.303282" stop-color="#ED1C24"/>
<stop offset="0.750195" stop-color="#F67D5D"/>
<stop offset="1" stop-color="#FFDC96"/>
</linearGradient>
</defs>
</svg>