<svg version="1" xmlns="http://www.w3.org/2000/svg" width="836" height="836" viewBox="0 0 627.000000 627.000000"><path d="M482 98.7c-2.4 7.3-4.1 13.5-3.9 13.6.2.2 3.1.9 6.4 1.6 27.9 6 54.9 20.3 73.5 39 23.9 24.2 36.1 52.4 37.6 87.1.5 12.2-.8 29-3 38.9-1.3 5.9-4.6 18.1-5.6 20.5-1.3 3.4-1.3 3.1.8 3.3.9.1 7 1.1 13.4 2.2 6.4 1.2 12.1 2.1 12.6 2.1.8 0 5.6-14.2 6.6-19.5.2-1.1.9-3.8 1.4-6 .6-2.2 1.4-6.3 1.8-9 .3-2.8.8-5.3 1-5.6.6-1 1.7-17.3 1.7-24.9 0-7.5-1.2-24-1.8-25-.1-.3-.6-2.7-.9-5.4-.4-2.7-.9-5.3-1.1-5.6-.2-.4-.7-2-.9-3.7-.3-1.6-1.8-6.6-3.2-10.9-17.7-52.5-61.7-89.8-122.5-103.8l-9.6-2.2-4.3 13.3z"/><path d="M456.1 159.6c-2.2 7.1-4.1 13.2-4.1 13.6 0 .6 2.3 1.3 8.5 2.4 5.3.9 17.4 5.3 24.7 8.9 24.8 12.3 41 34.4 45.3 62 1.8 11.6.5 28.7-3.6 44.9-1.1 4.3-1.9 8-1.7 8.1.2.2 2.8.6 5.8 1s9.1 1.3 13.5 2 8.3 1 8.6.6c1.7-1.8 6.4-18.1 7.5-25.6.3-2.8.8-5.9 1-7 .7-3.5.6-21.8-.1-27-4.3-32.1-21.7-60.3-48-77.9-10.2-6.9-15.9-9.7-27-13.4-9.1-3.1-12-3.7-21.1-4.8l-5.2-.6-4.1 12.8zM98 196.1c-1.9.5-4.6 1.2-5.9 1.5-5.1 1.1-15 4.8-23.6 8.8C45.5 217.3 27.4 234 15 256c-3.8 6.8-9.3 20.7-10.6 27-.7 3.5-1.3 6.1-2 9-.3 1.4-.8 9.5-1 18-.3 15.9.8 25.9 4.2 39.5 2.6 10.4 4.2 13.7 6.2 13.1.9-.3 3.3-.7 5.2-1 1.9-.3 5.6-.9 8.2-1.4 2.6-.5 5-.7 5.4-.3.4.3.4-.3.1-1.4-2.8-9.3-5.7-22.2-6.3-28-3.6-34.3 5.7-62.6 28-85.1C66.7 231 83 222.2 107.1 216l4.6-1.2-3.1-9.9c-3.4-10.7-3.3-10.7-10.6-8.8zM301 197.6c-17.5 3.1-32.2 9.4-46.1 19.8-18.8 14.2-32.7 34.2-38.9 56.1l-1.7 6-7 2.6c-3.8 1.4-8.9 3.5-11.4 4.7-11.9 5.9-29.6 23-28.1 27.3.7 1.9 5.6 4.7 27.1 15.6 9.7 5 17.4 12.3 18.8 18.1 2.4 9.3.2 19.2-5.5 24.8-5 5.1-9.8 6.9-17.7 6.9-6-.1-7.8-.6-12.5-3.3-3-1.7-9.2-5.1-13.7-7.4-7.1-3.6-8.4-4-9.8-2.8-1.4 1.1-1.6 2.4-1 6.9 3.1 24.6 20.6 49.4 43 60.6l7.6 3.8-5 2.8c-6.3 3.6-12.7 11-15.9 18.5-2.4 5.7-2.5 6.8-2.6 27.7-.2 20 0 22.3 2.1 28.3 3.7 11.3 13.6 20.7 25 24 4.3 1.3 8.8 1.5 20.2 1.2 13.1-.3 15.2-.6 20.1-2.9 3.1-1.4 7.3-4.1 9.5-6 4.6-4.1 10.3-12.7 11.1-16.9.4-1.6 1-3 1.3-3 .4 0 1.6 1.9 2.8 4.2 2.8 5.9 10.7 14.5 16.9 18.4 9.8 6.3 15.9 7.6 35.1 7.8 19.5.2 26.1-.8 35.2-5.4 11.8-5.9 21.2-17.1 25.2-29.9 1.8-5.9 2.1-9.2 2.1-31.2 0-13.5-.3-27-.7-30-.9-7.2-7.4-20.4-12.7-25.8-4.8-4.9-15.2-12.1-17.7-12.1-.9-.1 2.2-2 6.9-4.3 12.6-6.3 20.5-12 30-21.6 9.5-9.5 16.3-19.2 21.5-30.4 4.3-9.3 8.3-23.1 9.1-31.1.6-5.8.5-6.2-1.9-7.5-2.3-1.2-3.2-1-10.4 2.5-4.3 2.1-10.6 5.6-14.1 7.7-9.6 6-19.3 9.1-26.6 8.4-12.7-1.2-24.5-10.3-27.8-21.6-1.8-6.4-1.4-17.6.8-23.2 4-9.8 8.1-12.8 39.3-29.1 12.4-6.4 20.8-11.3 21.2-12.5 1.1-3-1.9-7.3-11.5-16.8-15.7-15.6-32.1-24.6-53.1-29.1-9.2-2-29-2.4-38.5-.8zM270 435c-1.5 2.8-4 16.8-3.4 18.9.3.9-.3.5-1.3-.9-3.7-5-7.9-9.4-10.8-11.2-2.8-1.7-2.9-1.9-.9-2.4 1.1-.3 5.4-2 9.5-3.8 4.1-1.8 7.5-3.1 7.7-3 .2.1-.2 1.2-.8 2.4zM436.1 206.8c-.8 1.6-8.1 24.4-8.1 25.5 0 .3 1.5.8 3.3 1.1 6.5 1.2 15.8 6.5 21.6 12.3 9.5 9.5 13.8 22 12.5 36.4-.3 3.5-.6 7.7-.7 9.4l-.2 3 11.5 2.7c6.3 1.4 12.2 2.7 13.1 2.7 4.9.3 7.4-32.1 3.5-46.4-1-3.9-2.3-7.4-2.7-8-.5-.5-.9-1.5-.9-2.2 0-.7-1.6-3.8-3.6-7-9.4-14.6-23.6-24.9-39.7-28.9-3.4-.8-6.8-1.7-7.4-1.9-.7-.2-1.7.3-2.2 1.3z"/><path d="M114.2 242.6c-48.4 9.9-77 62.1-61 111.2l2 6.4 5.2-.6c4.6-.6 6.5-.9 13.1-2.1 1.1-.2 2.3-.4 2.7-.4.3-.1 0-2.2-.8-4.8-3.1-10.1-4.4-26.4-3-36 3.7-25.8 22.5-45.5 50.1-52.6 4.7-1.2 8.4-2.6 8.2-3.2-.3-.5-1.7-5.2-3.2-10.2-3.2-10.4-2.4-9.9-13.3-7.7zM131.2 288.4c-17.2 6.4-28.8 20.4-31.9 38.4-1.3 7.8-.5 20.9 1.7 27.8l1 3.1 9.8-2.2 9.7-2.2-.4-4.4c-.8-10.3-.7-12.8.6-18 2.7-10.5 11.4-19.7 22.4-23.4l4.6-1.6-3.1-9.9c-3.5-11.6-3.5-11.6-14.4-7.6z"/></svg>